# Wavefront Obj file
# 
# verts: 102 uv-s: 131
mtllib yunque.mtl

g pCube5

v -74.307297 111.197586 56.099564
v 74.307297 111.197586 56.099564
v -53.411190 231.990906 40.089615
v 50.819561 237.451172 41.456055
v -53.411190 231.990906 -41.754318
v 50.819561 237.451172 -43.120758
v -74.307297 111.197586 -57.764256
v 74.307297 111.197586 -57.764256
v -74.307297 127.349884 56.099564
v -74.307297 127.349899 -57.764256
v 74.307297 127.349899 -57.764256
v 74.307297 127.349884 56.099564
v -30.020329 158.731812 21.909798
v -30.020329 158.731812 -23.574495
v 30.325970 158.731812 -23.574495
v 30.325970 158.731812 21.909798
v -46.794209 196.574905 37.010674
v -46.794209 196.574905 -38.675362
v 50.819515 191.114639 -39.938992
v 50.819515 191.114639 38.274288
v -51.967625 138.809631 42.491627
v -51.967625 138.809631 -44.156319
v 56.802174 138.809631 -44.156319
v 56.802174 138.809631 42.491627
v -37.809200 196.574905 -38.675362
v -22.740887 158.731812 -23.574495
v -38.332840 138.809631 -44.156319
v -41.893841 127.349899 -46.760082
v -41.893841 111.197586 -46.760082
v -41.893841 111.197586 45.095398
v -41.893841 127.349884 45.095398
v -38.332840 138.809631 42.491627
v -22.740887 158.731812 21.909798
v -37.809200 196.574905 37.010674
v -40.590374 231.990906 40.089615
v -40.590374 231.990906 -41.754318
v 38.517014 231.990906 40.089615
v 38.517014 231.990906 -41.754318
v 35.877903 196.574905 -38.675362
v 21.869295 158.731812 -23.574495
v 40.962387 138.809631 -44.156319
v 39.009304 127.349899 -46.760082
v 39.009304 111.197586 -46.760082
v 39.009304 111.197586 45.095398
v 39.009304 127.349884 45.095398
v 40.962387 138.809631 42.491627
v 21.869291 158.731812 21.909798
v 35.877903 196.574905 37.010674
v 63.777744 191.114639 -39.938995
v 63.777744 191.114639 38.274303
v 63.777794 237.451172 -43.120770
v 63.777782 237.451172 41.456074
v 63.777748 195.666504 -32.255783
v 63.777748 195.666504 30.591084
v 63.777782 232.899323 -34.812439
v 63.777775 232.899323 33.147736
v 102.325790 207.225525 -3.770917
v 102.325790 207.225525 2.106224
v 143.579041 232.899323 -3.716212
v 143.579041 232.899323 2.051512
v -113.726486 214.334244 37.010674
v -113.726486 214.334244 -38.675362
v -113.726532 230.823349 40.089615
v -113.726532 230.823349 -41.754318
v -72.996460 210.873474 -38.675362
v -80.482071 231.066406 -41.754318
v -80.482071 231.066406 40.089615
v -72.996460 210.873474 37.010674
v -32.026524 177.107437 -30.907082
v -32.026524 177.107437 29.242388
v -23.918896 177.107422 29.242388
v 28.671503 177.107437 29.242388
v 40.277096 174.456070 29.855963
v 40.277096 174.456070 -31.520666
v 28.671509 177.107437 -30.907082
v -23.918896 177.107437 -30.907082
v -28.978062 146.675751 -36.263287
v -39.170700 146.675751 -36.263287
v -43.202484 145.280167 34.598587
v -32.004940 145.280167 34.598587
v 33.640274 145.280167 34.598587
v 46.648674 145.280167 34.598587
v 42.616890 146.675751 -36.263287
v 30.775913 146.675751 -36.263287
# 84 positions

vt 0.375000 0.000000
vt 0.405005 0.000000
vt 0.405005 0.027988
vt 0.375000 0.027988
vt 0.375000 0.250000
vt 0.405005 0.250000
vt 0.405005 0.500000
vt 0.375000 0.500000
vt 0.375000 0.722012
vt 0.405005 0.722012
vt 0.405005 0.750000
vt 0.375000 0.750000
vt 0.405005 1.000000
vt 0.375000 1.000000
vt 0.625000 0.000000
vt 0.875000 0.000000
vt 0.875000 0.027988
vt 0.625000 0.027988
vt 0.125000 0.000000
vt 0.125000 0.027988
vt 0.375000 0.053129
vt 0.125000 0.053129
vt 0.375000 0.696871
vt 0.405005 0.696872
vt 0.875000 0.053129
vt 0.625000 0.053129
vt 0.405005 0.053129
vt 0.125000 0.138362
vt 0.375000 0.138362
vt 0.375000 0.188375
vt 0.125000 0.188375
vt 0.375000 0.561625
vt 0.405005 0.561625
vt 0.405005 0.611638
vt 0.375000 0.611638
vt 0.625000 0.138362
vt 0.875000 0.138362
vt 0.875000 0.188375
vt 0.625000 0.188375
vt 0.405005 0.138362
vt 0.405005 0.188375
vt 0.125000 0.188375
vt 0.375000 0.188375
vt 0.375000 0.250000
vt 0.125000 0.250000
vt 0.625000 0.188375
vt 0.875000 0.188375
vt 0.875000 0.250000
vt 0.625000 0.250000
vt 0.125000 0.067711
vt 0.375000 0.067711
vt 0.375000 0.091154
vt 0.125000 0.091154
vt 0.375000 0.658846
vt 0.405005 0.658846
vt 0.405005 0.682289
vt 0.375000 0.682289
vt 0.625000 0.067711
vt 0.875000 0.067711
vt 0.875000 0.091154
vt 0.625000 0.091154
vt 0.405005 0.067711
vt 0.405005 0.091154
vt 0.590143 0.561625
vt 0.590143 0.611638
vt 0.590143 0.682289
vt 0.590143 0.658846
vt 0.590143 0.696871
vt 0.590143 0.722012
vt 0.590143 0.750000
vt 0.590143 1.000000
vt 0.590143 0.000000
vt 0.590143 0.027988
vt 0.590143 0.053129
vt 0.590143 0.067711
vt 0.590143 0.091154
vt 0.590143 0.138362
vt 0.590143 0.188375
vt 0.590143 0.250000
vt 0.590143 0.500000
vt 0.625000 0.250000
vt 0.625000 0.500000
vt 0.625000 0.561625
vt 0.625000 0.611638
vt 0.625000 0.658846
vt 0.625000 0.682289
vt 0.625000 0.696871
vt 0.625000 0.722012
vt 0.625000 0.750000
vt 0.625000 1.000000
vt 0.875000 0.188375
vt 0.625000 0.188375
vt 0.875000 0.250000
vt 0.875000 0.250000
vt 0.625000 0.250000
vt 0.875000 0.188375
vt 0.625000 0.188375
vt 0.875000 0.250000
vt 0.625000 0.250000
vt 0.375000 0.188375
vt 0.125000 0.188375
vt 0.375000 0.250000
vt 0.125000 0.250000
vt 0.125000 0.250000
# 104 texture coordinates

vn 0.321473 0.000000 0.946919
vn 0.162913 0.000000 0.986641
vn 0.148217 0.167441 0.974677
vn 0.301386 0.090713 0.949177
vn 0.000000 1.000000 0.000000
vn 0.000000 1.000000 0.000000
vn 0.000000 1.000000 0.000000
vn 0.000000 1.000000 0.000000
vn 0.301387 0.090713 -0.949177
vn 0.148217 0.167441 -0.974677
vn 0.162913 0.000000 -0.986640
vn 0.321473 0.000000 -0.946919
vn 0.000000 -1.000000 0.000000
vn 0.000000 -1.000000 0.000000
vn 0.000000 -1.000000 0.000000
vn 0.000000 -1.000000 0.000000
vn 1.000000 0.000000 0.000000
vn 1.000000 0.000000 0.000000
vn 0.930640 0.365937 0.000000
vn 0.930640 0.365937 0.000000
vn -1.000000 0.000000 0.000000
vn -1.000000 0.000000 0.000000
vn -0.907211 0.420675 0.000000
vn -0.907211 0.420675 0.000000
vn -0.487575 0.873078 -0.002132
vn -0.490643 0.871358 -0.002345
vn 0.168475 0.470175 -0.866344
vn 0.045044 0.517698 -0.854377
vn 0.534098 0.845420 -0.001834
vn 0.535166 0.844745 -0.001691
vn 0.045648 0.558794 0.828049
vn 0.162678 0.502840 0.848934
vn -0.904511 -0.426451 0.000000
vn -0.904511 -0.426451 0.000000
vn -0.796706 -0.604367 0.000000
vn -0.796706 -0.604367 0.000000
vn 0.000000 -0.188683 -0.982038
vn 0.000000 -0.231090 -0.972932
vn 0.000000 -0.370621 -0.928784
vn 0.000000 -0.370621 -0.928784
vn 0.845003 -0.534762 0.000000
vn 0.845003 -0.534762 0.000000
vn 0.845003 -0.534762 0.000000
vn 0.845003 -0.534762 0.000000
vn -0.000000 -0.370621 0.928784
vn -0.000000 -0.370621 0.928784
vn -0.000000 -0.231090 0.972932
vn -0.000000 -0.188683 0.982038
vn -1.000000 -0.000003 0.000000
vn -1.000000 -0.000003 0.000000
vn -1.000000 -0.000003 0.000000
vn -1.000000 -0.000003 0.000000
vn 0.000000 -0.086610 -0.996242
vn 0.000000 -0.086610 -0.996242
vn 0.528378 -0.849009 0.000000
vn 0.528378 -0.849009 0.000000
vn 0.528378 -0.849009 0.000000
vn 0.528378 -0.849009 0.000000
vn 0.000000 -0.086610 0.996242
vn 0.000000 -0.086610 0.996242
vn -0.621205 0.783578 -0.010472
vn -0.615859 0.787791 -0.010175
vn -0.946591 0.322268 -0.010439
vn -0.943205 0.332039 -0.010669
vn 0.000000 0.280923 -0.959730
vn 0.000000 0.213975 -0.976839
vn 0.000000 0.716683 -0.697399
vn 0.000000 0.713513 -0.700642
vn 0.558101 0.829734 -0.008067
vn 0.562834 0.826528 -0.008324
vn 0.982676 0.185076 -0.009749
vn 0.985944 0.166805 -0.009553
vn 0.000000 0.748959 0.662616
vn 0.000000 0.731260 0.682099
vn -0.000000 0.187163 0.982329
vn -0.000000 0.270287 0.962780
vn -0.071145 -0.203305 -0.976527
vn -0.059490 -0.364359 -0.929356
vn 0.000000 0.716683 -0.697399
vn -0.018581 0.213081 -0.976858
vn -0.052450 0.552522 -0.831846
vn -0.119910 0.177544 -0.976780
vn -0.150527 0.000000 -0.988606
vn 0.000000 -1.000000 0.000000
vn 0.000000 -1.000000 0.000000
vn -0.150527 0.000000 0.988606
vn -0.119910 0.177544 0.976780
vn -0.053040 0.592593 0.803754
vn 0.000000 0.731260 0.682099
vn -0.018249 0.186246 0.982334
vn -0.059490 -0.364360 0.929356
vn -0.071145 -0.203305 0.976527
vn -0.055661 -0.078764 0.995338
vn -0.213806 0.976876 0.000000
vn -0.213806 0.976876 0.000000
vn -0.055661 -0.078764 -0.995338
vn -0.405671 0.914019 0.000000
vn -0.405671 0.914019 0.000000
vn -0.095834 -0.072930 -0.992722
vn -0.134563 -0.211039 -0.968171
vn -0.132311 -0.350433 -0.927195
vn -0.046062 0.226843 -0.972842
vn 0.000000 0.712998 -0.701166
vn -0.145043 0.536315 -0.831462
vn -0.273753 0.134519 -0.952347
vn -0.297623 0.000000 -0.954683
vn 0.000000 -1.000000 0.000000
vn 0.000000 -1.000000 0.000000
vn -0.297623 0.000000 0.954683
vn -0.273753 0.134520 0.952347
vn -0.140339 0.563561 0.814067
vn 0.000000 0.751466 0.659772
vn -0.044075 0.214748 0.975674
vn -0.132311 -0.350434 0.927195
vn -0.134562 -0.211039 0.968171
vn -0.095834 -0.072930 0.992722
vn 0.000000 -1.000000 0.000000
vn 0.000000 -1.000000 0.000000
vn 0.000000 -1.000000 0.000000
vn 0.000000 -1.000000 0.000000
vn -0.000001 -0.068505 -0.997651
vn -0.000001 -0.068505 -0.997651
vn -0.000001 -0.068505 -0.997651
vn -0.000001 -0.068505 -0.997651
vn 0.000000 1.000000 0.000000
vn 0.000000 1.000000 0.000000
vn 0.000000 1.000000 0.000000
vn 0.000000 1.000000 0.000000
vn -0.000001 -0.068505 0.997651
vn -0.000001 -0.068505 0.997651
vn -0.000001 -0.068505 0.997651
vn -0.000001 -0.068505 0.997651
vn 1.000000 -0.000001 -0.000000
vn 1.000000 -0.000001 0.000000
vn 1.000000 -0.000001 0.000000
vn 1.000000 -0.000001 -0.000000
vn 1.000000 -0.000001 0.000000
vn 1.000000 -0.000002 0.000000
vn 1.000000 -0.000001 -0.000000
vn 1.000000 -0.000001 -0.000000
vn 0.287225 -0.957863 0.000000
vn 0.287225 -0.957863 0.000000
vn 0.287225 -0.957863 0.000000
vn 0.287225 -0.957863 0.000000
vn 0.450135 -0.328221 -0.830451
vn 0.450135 -0.328221 -0.830451
vn 0.450135 -0.328221 -0.830451
vn 0.450135 -0.328221 -0.830451
vn 0.000000 1.000000 0.000000
vn 0.000000 1.000000 0.000000
vn 0.000000 1.000000 0.000000
vn 0.000000 1.000000 0.000000
vn 0.450135 -0.328221 0.830452
vn 0.450135 -0.328221 0.830452
vn 0.450135 -0.328221 0.830452
vn 0.450135 -0.328221 0.830452
vn -0.479018 -0.877805 0.000000
vn -0.479018 -0.877805 0.000000
vn -0.288012 -0.957627 0.000000
vn -0.288012 -0.957627 0.000000
vn -0.029472 -0.117395 0.992648
vn -0.029472 -0.117395 0.992648
vn -0.016055 -0.147425 0.988943
vn -0.022373 -0.133308 0.990822
vn -0.034131 0.999417 0.000000
vn -0.034131 0.999417 0.000000
vn -0.020723 0.999785 0.000000
vn -0.020723 0.999785 0.000000
vn -0.029472 -0.117396 -0.992648
vn -0.029472 -0.117396 -0.992648
vn -0.022373 -0.133309 -0.990822
vn -0.016055 -0.147426 -0.988943
vn -0.007264 -0.166993 -0.985931
vn -0.007264 -0.166993 -0.985931
vn -0.007311 0.999973 0.000000
vn -0.007311 0.999973 0.000000
vn -0.007264 -0.166992 0.985931
vn -0.007264 -0.166992 0.985931
vn -0.084663 -0.996410 0.000000
vn -0.084663 -0.996410 0.000000
# 180 normals

usemtl initialShadingGroup
s 1
f 1/1/1 30/2/2 31/3/3 9/4/4
f 9/4/4 31/3/3 32/27/31 21/21/32
f 70/29/45 71/40/46 34/41/47 17/30/48
f 17/30/48 34/41/47 35/6/59 3/5/60
f 79/51/73 80/62/74 33/63/75 13/52/76
f 31/3/3 30/2/2 44/72/86 45/73/87
f 32/27/31 31/3/3 45/73/87 46/74/88
f 33/63/75 80/62/74 81/75/89 47/76/90
f 34/41/47 71/40/46 72/77/91 48/78/92
f 35/6/59 34/41/47 48/78/92 37/79/93
f 45/73/87 44/72/86 2/15/109 12/18/110
f 46/74/88 45/73/87 12/18/110 24/26/111
f 47/76/90 81/75/89 82/58/112 16/61/113
f 48/78/92 72/77/91 73/36/114 20/39/115
f 37/79/93 48/78/92 20/39/115 4/81/116
f 13/52/76 33/63/75 71/40/46 70/29/45
f 72/77/91 71/40/46 33/63/75 47/76/90
f 73/36/114 72/77/91 47/76/90 16/61/113
f 21/21/32 32/27/31 80/62/74 79/51/73
f 81/75/89 80/62/74 32/27/31 46/74/88
f 82/58/112 81/75/89 46/74/88 24/26/111
s 2
f 3/5/5 35/6/6 36/7/7 5/8/8
f 36/7/7 35/6/6 37/79/94 38/80/95
f 38/80/95 37/79/94 4/81/97 6/82/98
s 3
f 10/9/9 28/10/10 29/11/11 7/12/12
f 22/23/27 27/24/28 28/10/10 10/9/9
f 18/32/37 25/33/38 76/34/39 69/35/40
f 5/8/53 36/7/54 25/33/38 18/32/37
f 14/54/65 26/55/66 77/56/67 78/57/68
f 25/33/38 39/64/77 75/65/78 76/34/39
f 84/66/79 77/56/67 26/55/66 40/67/80
f 28/10/10 27/24/28 41/68/81 42/69/82
f 29/11/11 28/10/10 42/69/82 43/70/83
f 25/33/38 36/7/54 38/80/96 39/64/77
f 39/64/77 38/80/96 6/82/99 19/83/100
f 75/65/78 39/64/77 19/83/100 74/84/101
f 84/66/79 40/67/80 15/85/102 83/86/103
f 42/69/82 41/68/81 23/87/104 11/88/105
f 43/70/83 42/69/82 11/88/105 8/89/106
f 40/67/80 75/65/78 74/84/101 15/85/102
f 76/34/39 75/65/78 40/67/80 26/55/66
f 69/35/40 76/34/39 26/55/66 14/54/65
f 78/57/68 77/56/67 27/24/28 22/23/27
f 41/68/81 84/66/79 83/86/103 23/87/104
f 27/24/28 77/56/67 84/66/79 41/68/81
s 4
f 7/12/13 29/11/14 30/13/15 1/14/16
f 30/13/15 29/11/14 43/70/84 44/71/85
f 44/71/85 43/70/84 8/89/107 2/90/108
s 5
f 2/15/17 8/16/18 11/17/19 12/18/20
f 12/18/20 11/17/19 23/25/29 24/26/30
f 73/36/41 74/37/42 19/38/43 20/39/44
f 82/58/69 83/59/70 15/60/71 16/61/72
f 16/61/72 15/60/71 74/37/42 73/36/41
f 24/26/30 23/25/29 83/59/70 82/58/69
s 6
f 7/19/21 1/1/22 9/4/23 10/20/24
f 10/20/24 9/4/23 21/21/25 22/22/26
f 69/28/33 70/29/34 17/30/35 18/31/36
f 78/50/61 79/51/62 13/52/63 14/53/64
f 14/53/64 13/52/63 70/29/34 69/28/33
f 22/22/26 21/21/25 79/51/62 78/50/61
s 7
f 62/42/49 61/43/50 63/44/51 64/45/52
s 8
f 58/46/55 57/47/56 59/48/57 60/49/58
s 9
f 20/39/117 19/38/118 49/91/119 50/92/120
s 10
f 19/38/121 6/93/122 51/94/123 49/91/124
s 11
f 6/93/125 4/81/126 52/95/127 51/94/128
s 12
f 4/81/129 20/39/130 50/92/131 52/95/132
s 13
f 50/92/133 49/91/134 53/96/135 54/97/136
f 49/91/134 51/94/137 55/98/138 53/96/135
f 51/94/137 52/95/139 56/99/140 55/98/138
f 52/95/139 50/92/133 54/97/136 56/99/140
s 14
f 54/97/141 53/96/142 57/47/143 58/46/144
s 15
f 53/96/145 55/98/146 59/48/147 57/47/148
s 16
f 55/98/149 56/99/150 60/49/151 59/48/152
s 17
f 56/99/153 54/97/154 58/46/155 60/49/156
s 18
f 18/31/157 17/30/158 68/100/159 65/101/160
f 65/101/160 68/100/159 61/43/179 62/42/180
s 19
f 17/30/161 3/5/162 67/102/163 68/100/164
f 68/100/164 67/102/163 63/44/177 61/43/178
s 20
f 3/5/165 5/103/166 66/104/167 67/102/168
f 67/102/168 66/104/167 64/45/175 63/44/176
s 21
f 5/103/169 18/31/170 65/101/171 66/104/172
f 66/104/172 65/101/171 62/42/173 64/45/174

g Yunque

v -86.578491 15.384125 62.965481
v 86.578476 15.384125 62.965481
v -86.578491 115.384125 62.965481
v 86.578476 115.384125 62.965481
v -86.578491 115.384125 -62.965481
v 86.578476 115.384125 -62.965481
v -86.578491 15.384125 -62.965481
v 86.578476 15.384125 -62.965481
v -82.965775 70.427773 -60.338081
v -82.965775 70.427773 60.338081
v 82.965759 70.427773 60.338081
v 82.965759 70.427773 -60.338081
v 0.026977 115.384125 -62.965481
v 0.025851 70.427773 -60.338081
v 0.025851 16.557014 -60.338081
v 0.026977 15.384125 62.965481
v 0.025851 70.427773 60.338081
v 0.026977 115.384125 62.965481
# 18 positions

vt 0.375000 0.140541
vt 0.500039 0.140541
vt 0.500039 0.250000
vt 0.375000 0.250000
vt 0.500039 0.500000
vt 0.375000 0.500000
vt 0.500039 0.609459
vt 0.375000 0.609459
vt 0.375000 0.750000
vt 0.500039 0.750000
vt 0.500039 1.000000
vt 0.375000 1.000000
vt 0.625000 0.140541
vt 0.875000 0.140541
vt 0.875000 0.250000
vt 0.625000 0.250000
vt 0.125000 0.140541
vt 0.125000 0.250000
vt 0.125000 0.000000
vt 0.375000 0.000000
vt 0.500039 0.000000
vt 0.625000 0.000000
vt 0.875000 0.000000
vt 0.625000 0.500000
vt 0.625000 0.609459
vt 0.625000 0.750000
vt 0.625000 1.000000
# 27 texture coordinates

vn 0.000000 -0.005576 0.999984
vn 0.000000 -0.005340 0.999986
vn 0.000000 -0.058344 0.998297
vn 0.000000 -0.058344 0.998297
vn 0.000000 1.000000 0.000000
vn 0.000000 1.000000 0.000000
vn 0.000000 1.000000 0.000000
vn 0.000000 1.000000 0.000000
vn 0.000000 -0.058344 -0.998297
vn 0.000000 -0.058344 -0.998297
vn -0.000002 -0.017385 -0.999849
vn 0.007634 -0.017566 -0.999817
vn 0.006843 -0.999965 -0.004706
vn -0.000002 -0.999989 -0.004706
vn -0.000002 -0.999989 -0.004706
vn 0.006843 -0.999965 -0.004706
vn 0.999971 -0.007562 0.000000
vn 0.999971 -0.007562 0.000000
vn 0.996787 -0.080102 0.000000
vn 0.996787 -0.080102 0.000000
vn -0.999971 -0.007562 0.000000
vn -0.999971 -0.007562 0.000000
vn -0.996787 -0.080102 0.000000
vn -0.996787 -0.080102 0.000000
vn -0.997853 0.065493 0.000000
vn -0.997853 0.065493 0.000000
vn 0.000000 0.047679 0.998863
vn 0.000000 0.047679 0.998863
vn 0.997853 0.065493 0.000000
vn 0.997853 0.065493 0.000000
vn -0.000005 0.023608 -0.999721
vn 0.015323 0.023606 -0.999604
vn 0.000000 -0.058344 -0.998297
vn -0.007639 -0.017566 -0.999816
vn -0.015332 0.023605 -0.999604
vn -0.006847 -0.999965 -0.004706
vn -0.006847 -0.999965 -0.004706
vn 0.000000 0.047679 0.998863
vn 0.000000 -0.005576 0.999985
vn 0.000000 -0.058344 0.998297
vn 0.000000 1.000000 0.000000
vn 0.000000 1.000000 0.000000
# 42 normals

usemtl initialShadingGroup
s 22
f 94/105/181 101/106/182 102/107/183 87/108/184
f 85/124/207 100/125/208 101/106/182 94/105/181
f 101/106/182 100/125/208 86/126/218 95/117/219
f 102/107/183 101/106/182 95/117/219 88/120/220
s 23
f 87/108/185 102/107/186 97/109/187 89/110/188
f 97/109/187 102/107/186 88/120/221 90/128/222
s 24
f 89/110/189 97/109/190 98/111/191 93/112/192
f 93/112/192 98/111/191 99/114/211 91/113/212
f 97/109/190 90/128/213 96/129/214 98/111/191
f 99/114/211 98/111/191 96/129/214 92/130/215
s 25
f 91/113/193 99/114/194 100/115/195 85/116/196
f 100/115/195 99/114/194 92/130/216 86/131/217
s 26
f 95/117/197 96/118/198 90/119/199 88/120/200
f 86/126/209 92/127/210 96/118/198 95/117/197
s 27
f 93/121/201 94/105/202 87/108/203 89/122/204
f 91/123/205 85/124/206 94/105/202 93/121/201

# 98 faces
